<svg width="24" height="19" viewBox="0 0 24 19" fill="none" xmlns="http://www.w3.org/2000/svg">
<path d="M0.5 6.40758L10.5817 11.7615C11.0016 11.9847 11.4952 12.1038 12 12.1038C12.5048 12.1038 12.9984 11.9847 13.4183 11.7615L23.5 6.40758M3.05556 17.604H20.9444C21.6222 17.604 22.2722 17.3895 22.7515 17.0078C23.2308 16.626 23.5 16.1082 23.5 15.5683V5.38972C23.5 4.84981 23.2308 4.33202 22.7515 3.95025C22.2722 3.56848 21.6222 3.354 20.9444 3.354H3.05556C2.37778 3.354 1.72776 3.56848 1.2485 3.95025C0.769245 4.33202 0.5 4.84981 0.5 5.38972V15.5683C0.5 16.1082 0.769245 16.626 1.2485 17.0078C1.72776 17.3895 2.37778 17.604 3.05556 17.604Z" stroke="white" stroke-linecap="round" stroke-linejoin="round"/>
</svg>
